<svg width="27" height="13" viewBox="0 0 27 13" fill="none" xmlns="http://www.w3.org/2000/svg">
<path id="Vector" d="M10.0413 12.5H6.5C4.9087 12.5 3.38258 11.8679 2.25736 10.7426C1.13214 9.61742 0.5 8.0913 0.5 6.5C0.5 4.9087 1.13214 3.38258 2.25736 2.25736C3.38258 1.13214 4.9087 0.5 6.5 0.5H9.96313M17.0369 0.5H20.5C22.0913 0.5 23.6174 1.13214 24.7426 2.25736C25.8679 3.38258 26.5 4.9087 26.5 6.5C26.5 8.0913 25.8679 9.61742 24.7426 10.7426C23.6174 11.8679 22.0913 12.5 20.5 12.5H16.9587M8.06688 6.5H19.0581" stroke="white" stroke-linecap="round" stroke-linejoin="round"/>
</svg>
